<?xml version="1.0" encoding="utf-8"?>
<!-- Generator: Adobe Illustrator 22.1.0, SVG Export Plug-In . SVG Version: 6.00 Build 0)  -->
<svg version="1.1" id="Layer_1" xmlns="http://www.w3.org/2000/svg" xmlns:xlink="http://www.w3.org/1999/xlink" x="0px" y="0px"
	 viewBox="0 0 1040.7 533" style="enable-background:new 0 0 1040.7 533;" xml:space="preserve">
<style type="text/css">
	.st0{fill:#EFEBE9;}
	.st1{fill:#C89AF2;}
	.st2{fill:#616161;}
	.st3{fill:#424242;}
</style>
<g>
	<g>
		
			<image style="overflow:visible;opacity:0.27;enable-background:new    ;" width="933" height="419" xlink:href="2C402F09FC799A82.png"  transform="matrix(0.9991 0 0 0.9991 108.5867 0.1868)">
		</image>
		<g>
			<rect x="114.6" y="6" class="st0" width="906.1" height="393.1"/>
		</g>
	</g>
	<g>
		
			<image style="overflow:visible;opacity:0.27;enable-background:new    ;" width="173" height="139" xlink:href="2C402F09FC799A86.png"  transform="matrix(0.9965 0 0 0.9965 223.4742 394.2439)">
		</image>
		<g>
			<polygon class="st0" points="229.5,399.1 229.5,513.6 376.4,399.1 			"/>
		</g>
	</g>
	<rect x="142.6" y="35.4" class="st1" width="349.4" height="316.7"/>
	<g>
		<path class="st2" d="M555.3,262c-4.5,5.7-11.4,8.5-20.7,8.5c-5,0-9.3-1.8-13-5.4s-5.5-8.1-5.5-13.5c0-6.5,2.8-11.9,8.5-16.4
			c5.6-4.5,12.8-6.7,21.6-6.7c2.4,0,5.1,0.5,8.1,1.5c0-10.3-4.6-15.5-13.8-15.5c-7.1,0-12.5,1.9-16.3,5.7l-4.8-9.4
			c2.1-1.7,5.1-3.2,8.9-4.5c3.8-1.2,7.4-1.9,10.8-1.9c9.2,0,15.9,2.1,20.1,6.3s6.3,10.9,6.3,20v22.8c0,5.6,1.7,9.3,5,11.2v5.6
			c-4.6,0-8-0.7-10.3-2C557.9,267.2,556.3,265,555.3,262z M554.2,238.1c-3.6-0.8-6.1-1.2-7.5-1.2c-5.7,0-10.4,1.5-14,4.4
			s-5.4,6.4-5.4,10.4c0,6.6,3.9,9.9,11.7,9.9c5.7,0,10.8-2.7,15.2-8.1V238.1z"/>
		<path class="st2" d="M617.9,216.6c-2.5-1.7-4.9-2.6-7.4-2.6c-4,0-7.5,1.8-10.5,5.5s-4.5,8.1-4.5,13.3v36.5h-11.3v-63.6h11.3v10.2
			c4.1-7.6,10.2-11.4,18.4-11.4c2,0,4.9,0.4,8.7,1.1L617.9,216.6z"/>
		<path class="st2" d="M628.3,286.7l6.1-9c6.6,4.4,12.6,6.6,18.2,6.6c5.1,0,9.1-0.9,12.1-2.6c3-1.8,4.4-4,4.4-6.6
			c0-5.2-3.7-7.7-11.2-7.7c-1.3,0-3.6,0.3-6.9,1c-3.3,0.6-5.9,1-7.8,1c-9,0-13.5-3.4-13.5-10.2c0-2.1,1.1-4,3.2-5.7
			c2.1-1.7,4.7-2.9,7.9-3.7c-9-4.2-13.4-11.5-13.4-21.9c0-6.7,2.3-12.2,7-16.6c4.6-4.4,10.4-6.7,17.2-6.7c6.3,0,11.2,1.3,14.7,3.9
			l5.6-6.8l7.4,7l-6.8,5.1c2.9,3.8,4.3,8.7,4.3,14.7c0,6.4-2,11.8-6,16.2s-9.3,6.9-15.7,7.5l-9.3,1c-1.1,0.1-2.6,0.5-4.5,1.3
			c-1.9,0.7-2.8,1.7-2.8,2.9c0,1.6,1.9,2.4,5.8,2.4c1.7,0,4.4-0.3,8-0.9s6.3-0.9,8-0.9c6.3,0,11.1,1.5,14.7,4.5
			c3.5,3,5.3,7.1,5.3,12.4c0,5.9-2.6,10.6-7.9,14.2c-5.3,3.6-11.9,5.4-19.9,5.4c-4.1,0-8.5-0.7-13-2.2
			C634.7,290.6,631,288.8,628.3,286.7z M652.2,213.6c-3.9,0-7.1,1.4-9.6,4.2s-3.7,6.1-3.7,10.1c0,4.4,1.2,8.1,3.6,11
			c2.4,2.9,5.6,4.4,9.7,4.4c4,0,7.1-1.4,9.4-4.2c2.3-2.8,3.4-6.5,3.4-11.1c0-4-1.2-7.3-3.7-10.1C658.9,215,655.8,213.6,652.2,213.6z
			"/>
		<path class="st2" d="M697.1,269.3v-54.1h-8.7v-9.5h20v63.6H697.1z M703.3,181.6c1.9,0,3.6,0.7,5,2c1.4,1.4,2,3,2,4.9s-0.7,3.6-2,5
			c-1.4,1.4-3,2-5,2c-1.9,0-3.5-0.7-4.9-2c-1.4-1.4-2.1-3-2.1-5c0-1.9,0.7-3.6,2-4.9C699.7,182.3,701.4,181.6,703.3,181.6z"/>
		<path class="st2" d="M765.5,269.3v-37c0-6.8-1-11.5-3.1-14.2c-2-2.7-5.5-4.1-10.3-4.1c-2.6,0-5.3,0.8-8.1,2.3s-5,3.4-6.5,5.7v47.3
			h-11.3v-63.6h7.7l3.6,8.2c3.7-6.3,9.8-9.4,18.2-9.4c13.9,0,20.9,8.5,20.9,25.4v39.4H765.5z"/>
		<path class="st2" d="M828.8,262c-4.5,5.7-11.4,8.5-20.7,8.5c-5,0-9.3-1.8-13-5.4s-5.5-8.1-5.5-13.5c0-6.5,2.8-11.9,8.5-16.4
			c5.6-4.5,12.8-6.7,21.6-6.7c2.4,0,5.1,0.5,8.1,1.5c0-10.3-4.6-15.5-13.8-15.5c-7.1,0-12.5,1.9-16.3,5.7l-4.8-9.4
			c2.1-1.7,5.1-3.2,8.9-4.5c3.8-1.2,7.4-1.9,10.8-1.9c9.2,0,15.9,2.1,20.1,6.3s6.3,10.9,6.3,20v22.8c0,5.6,1.7,9.3,5,11.2v5.6
			c-4.6,0-8-0.7-10.3-2C831.5,267.2,829.8,265,828.8,262z M827.8,238.1c-3.6-0.8-6.1-1.2-7.5-1.2c-5.7,0-10.4,1.5-14,4.4
			s-5.4,6.4-5.4,10.4c0,6.6,3.9,9.9,11.7,9.9c5.7,0,10.8-2.7,15.2-8.1V238.1z"/>
		<path class="st2" d="M857.7,251.3v-71.7H869v69.8c0,3.4,1,6.1,2.9,8.1c2,2,4.5,2.9,7.7,2.9v10.1
			C865,270.5,857.7,264.1,857.7,251.3z"/>
		<path class="st2" d="M898.2,269.3v-54.1h-8.7v-9.5h20v63.6H898.2z M904.4,181.6c1.9,0,3.6,0.7,5,2s2,3,2,4.9s-0.7,3.6-2,5
			c-1.4,1.4-3,2-5,2c-1.9,0-3.5-0.7-4.9-2c-1.4-1.4-2.1-3-2.1-5c0-1.9,0.7-3.6,2-4.9C900.8,182.3,902.4,181.6,904.4,181.6z"/>
		<path class="st2" d="M963.4,262c-4.5,5.7-11.4,8.5-20.7,8.5c-5,0-9.3-1.8-13-5.4s-5.5-8.1-5.5-13.5c0-6.5,2.8-11.9,8.5-16.4
			c5.6-4.5,12.8-6.7,21.6-6.7c2.4,0,5.1,0.5,8.1,1.5c0-10.3-4.6-15.5-13.8-15.5c-7.1,0-12.5,1.9-16.3,5.7l-4.8-9.4
			c2.1-1.7,5.1-3.2,8.9-4.5c3.8-1.2,7.4-1.9,10.8-1.9c9.2,0,15.9,2.1,20.1,6.3s6.3,10.9,6.3,20v22.8c0,5.6,1.7,9.3,5,11.2v5.6
			c-4.6,0-8-0.7-10.3-2C966,267.2,964.4,265,963.4,262z M962.3,238.1c-3.6-0.8-6.1-1.2-7.5-1.2c-5.7,0-10.4,1.5-14,4.4
			s-5.4,6.4-5.4,10.4c0,6.6,3.9,9.9,11.7,9.9c5.7,0,10.8-2.7,15.2-8.1V238.1z"/>
	</g>
	<g>
		<path class="st0" d="M423.4,314l-35-165.3l-64.3,168.8h-10L248,148.7L213.9,314h-38.2l55.1-257.3H249l70.1,187.8l64.7-187.8h18.1
			L461.6,314H423.4z"/>
	</g>
	<g>
		<polygon class="st3" points="72.2,312 50,389.2 0,347.2 		"/>
		
			<rect x="1.9" y="372.5" transform="matrix(0.6433 -0.7656 0.7656 0.6433 -283.5707 147.072)" class="st3" width="28.3" height="10.8"/>
	</g>
</g>
</svg>
